<?xml version="1.0" encoding="UTF-8"?>
<svg width="1779px" height="877px" viewBox="0 0 1779 877" version="1.1" xmlns="http://www.w3.org/2000/svg" xmlns:xlink="http://www.w3.org/1999/xlink">
    <title>123</title>
    <g id="页面-1" stroke="none" stroke-width="1" fill="none" fill-rule="evenodd">
        <g id="123" transform="translate(0.6172, 0)" fill="#909394" fill-rule="nonzero">
            <path d="M1627.05345,327.850159 C1610.48202,282.839683 1597.04075,254.237619 1583.85265,236.053175 C1569.72091,216.543333 1545.07091,199.313175 1499.17726,176.88746 C1495.33361,175.005397 1491.32884,173.04381 1490.27011,172.566667 L1488.38281,171.665397 L1488.38281,166.973492 L1488.38281,162.281587 L1490.96059,161.035714 C1542.37805,136.330317 1569.14551,118.145873 1583.69154,98.0793651 C1588.2717,91.7704762 1593.93361,82.4661905 1598.30662,74.0896825 C1606.36218,58.6090476 1616.35107,35.0169841 1626.93837,6.41492063 L1629.33202,0 L1633.45186,0.053015873 L1637.5717,0.132539683 L1638.37726,2.38571429 C1649.58599,33.7180952 1661.25503,61.2068254 1670.32329,77.8273016 C1681.46297,98.1853968 1690.57726,109.080159 1706.91853,121.538889 C1722.01694,133.043333 1744.25027,145.873175 1773.50345,159.975397 L1778.38281,162.334603 L1778.33678,166.973492 L1778.26773,171.612381 L1772.16853,174.554762 C1730.809,194.541746 1706.96456,209.65127 1691.54392,225.688571 C1682.36059,235.257937 1673.3844,249.174603 1664.109,268.260317 C1657.08916,282.680635 1647.10027,307.306508 1638.21615,331.958889 L1637.47964,334 L1633.40583,334 L1629.33202,334 L1627.05345,327.850159 Z" id="路径" fill-opacity="0.62"></path>
            <g id="Day" transform="translate(0, 9.0312)">
                <path d="M163.085938,426.498413 C116.210938,418.055216 78.9388021,397.605896 51.2695312,365.150452 C23.6002604,332.695007 9.765625,292.449951 9.765625,244.415283 C9.765625,176.900228 36.6210938,119.285583 90.3320312,71.5713501 C144.042969,23.8571167 209.635417,0 287.109375,0 C369.140625,0 436.523438,26.3671875 489.257812,79.1015625 C545.247396,135.091146 573.242188,209.635417 573.242188,302.734375 C573.242188,408.854167 545.572917,498.372396 490.234375,571.289062 C438.802083,639.648438 380.859375,673.828125 316.40625,673.828125 C294.921875,673.828125 268.880208,666.666667 238.28125,652.34375 C198.567708,633.463542 173.502604,622.721354 163.085938,620.117188 C137.044271,640.848796 115.559896,654.983521 98.6328125,662.521362 C81.7057292,670.059204 62.5,673.828125 41.015625,673.828125 C13.671875,673.828125 0,663.116455 0,641.693115 C0,624.165853 9.11458333,607.289632 27.34375,591.064453 C50.78125,570.292155 83.6588542,556.981405 125.976562,551.132202 C140.299479,527.114868 152.669271,485.570272 163.085938,426.498413 Z M203.125,551.757812 C247.395833,566.731771 291.992188,581.380208 336.914062,595.703125 C379.231771,595.703125 416.992188,567.057292 450.195312,509.765625 C483.398438,452.473958 500,387.369792 500,314.453125 C500,238.932292 480.63151,178.873698 441.894531,134.277344 C403.157552,89.6809896 350.911458,67.3828125 285.15625,67.3828125 C229.817708,67.3828125 182.617188,83.984375 143.554688,117.1875 C104.492188,150.390625 84.9609375,191.731771 84.9609375,241.210938 C84.9609375,301.106771 115.885417,341.471354 177.734375,362.304688 C197.265625,295.898438 212.239583,246.25651 222.65625,213.378906 C233.072917,180.501302 244.466146,150.390625 256.835938,123.046875 L288.085938,123.046875 C295.247396,123.046875 302.734375,123.535156 310.546875,124.511719 C318.359375,125.488281 326.171875,126.302083 333.984375,126.953125 C320.963542,161.458333 307.291667,204.752604 292.96875,256.835938 C281.25,301.106771 271.484375,343.424479 263.671875,383.789062 C274.739583,383.789062 282.226562,383.789062 286.132812,383.789062 C297.851562,383.789062 310.221354,382.8125 323.242188,380.859375 C319.986979,407.552083 294.921875,424.479167 248.046875,431.640625 C235.677083,479.817708 220.703125,519.856771 203.125,551.757812 Z" id="形状"></path>
                <path d="M1100.58594,487.304688 L1100.58594,569.885254 C1025.0651,639.180501 965.820312,673.828125 922.851562,673.828125 C902.669271,673.828125 889.160156,666.257222 882.324219,651.115417 C875.488281,635.973612 872.070312,618.097941 872.070312,597.488403 L872.070312,581.054688 C840.820312,615.559896 814.941406,639.648438 794.433594,653.320312 C773.925781,666.992188 753.90625,673.828125 734.375,673.828125 C705.078125,673.828125 679.52474,659.99349 657.714844,632.324219 C635.904948,604.654948 625,571.940104 625,534.179688 C625,463.867188 647.135417,402.994792 691.40625,351.5625 C732.421875,304.036458 777.018229,280.273438 825.195312,280.273438 C844.726562,280.273438 862.467448,285.15625 878.417969,294.921875 C894.36849,304.6875 909.505208,320.3125 923.828125,341.796875 L940.429688,280.273438 L1021.48438,280.273438 L970.703125,486.328125 C966.145833,502.461751 962.239583,519.721985 958.984375,538.108826 C955.729167,556.495667 954.101562,569.239299 954.101562,576.339722 C954.101562,588.597616 958.007812,594.726562 965.820312,594.726562 C976.236979,594.726562 993.326823,585.210164 1017.08984,566.177368 C1040.85286,547.144572 1068.6849,520.853678 1100.58594,487.304688 Z M888.092041,499.11499 L910.171509,401.367188 C888.036092,375.325521 873.387655,359.375 866.226196,353.515625 C855.80953,345.052083 844.741821,340.820312 833.023071,340.820312 C801.762899,340.820312 773.60026,358.561198 748.535156,394.042969 C723.470052,429.52474 710.9375,469.401042 710.9375,513.671875 C710.9375,541.666667 715.504964,564.290365 724.639893,581.542969 C733.774821,598.795573 745.844523,607.421875 760.848999,607.421875 C780.431112,607.421875 803.924561,593.109131 831.329346,564.483643 C850.250244,543.019613 869.171143,521.230062 888.092041,499.11499 Z" id="形状"></path>
                <path d="M1166.01562,310.546875 L1176.75781,282.226562 L1259.76562,282.226562 C1236.97917,344.726562 1220.21484,395.996094 1209.47266,436.035156 C1198.73047,476.074219 1193.35938,509.765625 1193.35938,537.109375 C1193.35938,570.963542 1200.14954,587.890625 1213.72986,587.890625 C1237.65564,587.890625 1266.43372,570.602417 1300.06409,536.026001 C1325.28178,510.584513 1347.91565,481.877645 1367.9657,449.905396 L1412.68921,283.096313 L1492.1875,283.203125 L1416.01562,587.890625 C1434.89583,577.677409 1464.51823,558.197021 1504.88281,529.449463 C1532.22656,510.294596 1552.08333,496.246338 1564.45312,487.304688 L1564.45312,570.3125 C1555.33854,575.520833 1542.31771,583.984375 1525.39062,595.703125 C1498.69792,613.932292 1467.1224,632.486979 1430.66406,651.367188 L1398.4375,668.945312 C1384.76562,732.096354 1366.86198,779.947917 1344.72656,812.5 C1319.33594,848.958333 1288.73698,867.1875 1252.92969,867.1875 C1228.1901,867.1875 1206.05469,860.677083 1186.52344,847.65625 C1166.99219,834.635417 1157.22656,819.661458 1157.22656,802.734375 C1157.22656,761.71875 1206.05469,707.356771 1303.71094,639.648438 L1324.21875,625.976562 L1339.84375,569.335938 C1313.15104,600.585938 1283.85417,624.674479 1251.95312,641.601562 C1223.30729,656.575521 1195.63802,664.0625 1168.94531,664.0625 C1147.46094,664.0625 1132.16146,646.158854 1123.04688,610.351562 C1117.1875,586.914062 1114.25781,560.221354 1114.25781,530.273438 C1114.25781,482.747396 1131.51042,409.505208 1166.01562,310.546875 Z M1305.66406,719.726562 L1309.57031,703.125 C1251.6276,744.140625 1222.65625,773.763021 1222.65625,791.992188 C1222.65625,807.617188 1233.07292,815.429688 1253.90625,815.429688 C1266.27604,815.429688 1276.20443,808.59375 1283.69141,794.921875 C1291.17839,781.25 1298.5026,756.184896 1305.66406,719.726562 Z" id="形状"></path>
            </g>
        </g>
    </g>
</svg>